custom-analysis
version=1
nRows=4
nColumns=98
inDegrees=no

This file contains tibia displacement and acting force.

Units are S.I. units (seconds, meters, Newtons, ...)
Angles are in degrees.

endheader
time	APT	SIT	knee_angle	aACL_R_force	pACL_R_force	aPCL_R_force	pPCL_R_force	aMCL_R_force	mMCL_R_force	pMCL_R_force	aLCL_R_force	mLCL_R_force	pLCL_R_force	aPCL_L_force	pPCL_L_force	aMCL_L_force	aLCL_L_force	aACL_R_length	pACL_R_length	aPCL_R_length	pPCL_R_length	aMCL_R_length	mMCL_R_length	pMCL_R_length	aLCL_R_length	mLCL_R_length	pLCL_R_length	aPCL_L_length	pPCL_L_length	aMCL_L_length	aLCL_L_length	aACL_R_strain	pACL_R_strain	aPCL_R_strain	pPCL_R_strain	aMCL_R_strain	mMCL_R_strain	pMCL_R_strain	aLCL_R_strain	mLCL_R_strain	pLCL_R_strain	aPCL_L_strain	pPCL_L_strain	aMCL_L_strain	aLCL_L_strain	femur_lat_meniscii_r.femur_lat_r.force.X	femur_lat_meniscii_r.femur_lat_r.force.Y	femur_lat_meniscii_r.femur_lat_r.force.Z	femur_lat_meniscii_r.femur_lat_r.torque.X	femur_lat_meniscii_r.femur_lat_r.torque.Y	femur_lat_meniscii_r.femur_lat_r.torque.Z	femur_lat_meniscii_r.meniscus_lat_r.force.X	femur_lat_meniscii_r.meniscus_lat_r.force.Y	femur_lat_meniscii_r.meniscus_lat_r.force.Z	femur_lat_meniscii_r.meniscus_lat_r.torque.X	femur_lat_meniscii_r.meniscus_lat_r.torque.Y	femur_lat_meniscii_r.meniscus_lat_r.torque.Z	femur_med_meniscii_r.femur_med_r.force.X	femur_med_meniscii_r.femur_med_r.force.Y	femur_med_meniscii_r.femur_med_r.force.Z	femur_med_meniscii_r.femur_med_r.torque.X	femur_med_meniscii_r.femur_med_r.torque.Y	femur_med_meniscii_r.femur_med_r.torque.Z	femur_med_meniscii_r.meniscus_med_r.force.X	femur_med_meniscii_r.meniscus_med_r.force.Y	femur_med_meniscii_r.meniscus_med_r.force.Z	femur_med_meniscii_r.meniscus_med_r.torque.X	femur_med_meniscii_r.meniscus_med_r.torque.Y	femur_med_meniscii_r.meniscus_med_r.torque.Z	femur_med_tibia_r.tibia_upper_r.force.X	femur_med_tibia_r.tibia_upper_r.force.Y	femur_med_tibia_r.tibia_upper_r.force.Z	femur_med_tibia_r.tibia_upper_r.torque.X	femur_med_tibia_r.tibia_upper_r.torque.Y	femur_med_tibia_r.tibia_upper_r.torque.Z	femur_med_tibia_r.femur_med_r.force.X	femur_med_tibia_r.femur_med_r.force.Y	femur_med_tibia_r.femur_med_r.force.Z	femur_med_tibia_r.femur_med_r.torque.X	femur_med_tibia_r.femur_med_r.torque.Y	femur_med_tibia_r.femur_med_r.torque.Z	femur_lat_tibia_r.tibia_upper_r.force.X	femur_lat_tibia_r.tibia_upper_r.force.Y	femur_lat_tibia_r.tibia_upper_r.force.Z	femur_lat_tibia_r.tibia_upper_r.torque.X	femur_lat_tibia_r.tibia_upper_r.torque.Y	femur_lat_tibia_r.tibia_upper_r.torque.Z	femur_lat_tibia_r.femur_lat_r.force.X	femur_lat_tibia_r.femur_lat_r.force.Y	femur_lat_tibia_r.femur_lat_r.force.Z	femur_lat_tibia_r.femur_lat_r.torque.X	femur_lat_tibia_r.femur_lat_r.torque.Y	femur_lat_tibia_r.femur_lat_r.torque.Z	femur_lat_meniscii_force_r	femur_med_meniscii_force_r	femur_lat_tibia_force_r	femur_med_tibia_force_r
      0.20953285	      0.01351117	      0.02615158	     81.35853461	      0.73517049	      0.00000000	    964.28070960	    608.79433718	     23.63785377	      9.29278270	      0.00000000	      0.00000000	      0.00000000	      0.00000000	      0.00000000	      0.00000000	      0.00000001	      0.00000000	      0.03103974	      0.02444122	      0.03716597	      0.03395192	      0.06148038	      0.05992430	      0.05657176	      0.05014076	      0.04470256	      0.03970499	      0.01525851	      0.01651186	      0.06550154	      0.04489616	      0.00110431	     -0.02464116	      0.19522793	      0.13597923	      0.02421206	      0.00218760	     -0.03671571	     -0.10426464	     -0.20625591	     -0.24144176	      0.00000079	     -0.32847694	      0.00000060	     -0.00000086	    160.11931664	     97.73120209	      9.33588221	     -5.96082590	      3.72515482	     63.57569089	   -160.11931664	    -97.73120209	     -9.33588221	      2.53835104	     -4.40334061	      2.22250954	      0.04908367	      0.00099093	     -0.03070958	      0.01222525	     -0.00076237	      0.01951463	     -0.04908367	     -0.00099093	      0.03070958	     -0.00011144	      0.00146499	     -0.00013023	   -894.12719549	   -368.10635602	    315.94725923	     -8.26679638	     21.84179011	      2.25085275	    894.12719549	    368.10635602	   -315.94725923	    133.84645907	    -15.64582411	    360.35702792	   -302.81271353	   -135.41573429	    -82.83245633	      4.41276765	    -10.48000922	      1.00378077	    302.81271353	    135.41573429	     82.83245633	    -36.72065681	      7.42972613	    122.09163813	    187.82103748	      0.05790740	    341.89790346	   1017.24549725
      0.20954085	      0.01351086	      0.02615311	     81.36290973	     -0.54862110	      0.00000000	    967.83619463	    618.46518759	     27.09945703	     13.60071634	      0.00000000	      0.00000000	      0.00000000	      0.00000000	      0.00000000	      0.00000000	      0.00000001	      0.00000000	      0.03103974	      0.02444145	      0.03716634	      0.03395222	      0.06148061	      0.05992442	      0.05657194	      0.05014036	      0.04470210	      0.03970460	      0.01525851	      0.01651186	      0.06550154	      0.04489616	      0.00110445	     -0.02463211	      0.19523994	      0.13598934	      0.02421593	      0.00218961	     -0.03671261	     -0.10427174	     -0.20626401	     -0.24144906	      0.00000079	     -0.32847694	      0.00000060	     -0.00000086	    145.36470745	     97.98499470	     13.03773096	     -7.46553649	      3.42085318	     57.59796817	   -145.36470745	    -97.98499470	    -13.03773096	      2.58380396	     -4.16031548	      2.38853050	      0.04352497	      0.00140109	     -0.02738028	      0.01090510	     -0.00067731	      0.01730005	     -0.04352497	     -0.00140109	      0.02738028	     -0.00010315	      0.00130441	     -0.00009669	   -887.59274176	   -376.12248702	    310.70361402	     -8.28216321	     21.56955185	      2.64734970	    887.59274176	    376.12248702	   -310.70361402	    131.81568945	    -15.49838047	    357.60261292	   -300.18803125	   -138.63526426	    -84.73748526	      4.51649876	    -10.49475664	      1.17267591	    300.18803125	    138.63526426	     84.73748526	    -37.56725574	      7.39965313	    120.97553428	    175.78947575	      0.05143992	    341.34005333	   1012.83055653
      0.20954885	      0.01351047	      0.02615460	     81.36727160	     -1.46730388	      0.00000000	    970.43401216	    625.46835336	     29.60214402	     16.71311593	      0.00000000	      0.00000000	      0.00000000	      0.00000000	      0.00000000	      0.00000000	      0.00000001	      0.00000000	      0.03103972	      0.02444167	      0.03716679	      0.03395261	      0.06148088	      0.05992459	      0.05657218	      0.05014002	      0.04470170	      0.03970429	      0.01525851	      0.01651186	      0.06550154	      0.04489616	      0.00110375	     -0.02462333	      0.19525440	      0.13600215	      0.02422043	      0.00219242	     -0.03670859	     -0.10427788	     -0.20627110	     -0.24145509	      0.00000079	     -0.32847694	      0.00000060	     -0.00000086	    134.71271563	     97.72983715	     15.51032217	     -8.46044048	      3.19839280	     53.28806993	   -134.71271563	    -97.72983715	    -15.51032217	      2.60288100	     -3.97667449	      2.49085446	      0.03942292	      0.00161097	     -0.02489639	      0.00991919	     -0.00061431	      0.01566659	     -0.03942292	     -0.00161097	      0.02489639	     -0.00009625	      0.00118494	     -0.00007524	   -882.63621248	   -381.60800402	    306.90044230	     -8.28948292	     21.36966421	      2.92583340	    882.63621248	    381.60800402	   -306.90044230	    130.33819779	    -15.38839448	    355.51977524	   -298.24322319	   -140.84767411	    -86.08956036	      4.58829200	    -10.50332695	      1.29106916	    298.24322319	    140.84767411	     86.08956036	    -38.16651924	      7.37661104	    120.15071010	    167.15025251	      0.04665396	    340.87901063	   1009.38557242
      0.20958150	      0.01350858	      0.02616048	     81.38502227	     -2.60156168	      0.00000000	    974.02852214	    634.62639869	     32.81821874	     20.70492125	      0.00000000	      0.00000000	      0.00000000	      0.00000000	      0.00000000	      0.00000000	      0.00000001	      0.00000000	      0.03103954	      0.02444255	      0.03716891	      0.03395447	      0.06148212	      0.05992545	      0.05657334	      0.05013881	      0.04470028	      0.03970325	      0.01525851	      0.01651186	      0.06550154	      0.04489616	      0.00109784	     -0.02458845	      0.19532259	      0.13606447	      0.02424115	      0.00220683	     -0.03668876	     -0.10429943	     -0.20629625	     -0.24147499	      0.00000079	     -0.32847694	      0.00000060	     -0.00000086	    121.02977404	     96.96085861	     18.24742145	     -9.55047390	      2.90721935	     47.75728036	   -121.02977404	    -96.96085861	    -18.24742145	      2.61134579	     -3.72352018	      2.60547025	      0.03365941	      0.00175989	     -0.02136865	      0.00851739	     -0.00052549	      0.01337272	     -0.03365941	     -0.00175989	      0.02136865	     -0.00008520	      0.00101578	     -0.00005015	   -874.73311707	   -387.32331008	    301.55497380	     -8.27612341	     21.07776471	      3.26000830	    874.73311707	    387.32331008	   -301.55497380	    128.23381306	    -15.22007057	    352.23001701	   -295.40026156	   -143.38151064	    -87.51135212	      4.66816796	    -10.49377033	      1.43849110	    295.40026156	    143.38151064	     87.51135212	    -38.80085565	      7.33567712	    118.95294147	    156.14923214	      0.03990830	    339.82025966	   1003.05173090
